<svg width="96" height="96" xmlns="http://www.w3.org/2000/svg" xmlns:xlink="http://www.w3.org/1999/xlink" xml:space="preserve" overflow="hidden"><defs><clipPath id="clip0"><rect x="206" y="332" width="96" height="96"/></clipPath></defs><g clip-path="url(#clip0)" transform="translate(-206 -332)"><path d="M285 389.8C285.3 380.5 285 372 280 363.8 274.4 354.6 265.5 347.8 254.7 346.5 243.9 345.2 233 348 224.1 354.2 216.5 359.8 210 369.9 210 379.6 211.2 372.2 215.4 365.6 221.7 361.4 228 357.2 235.7 355.9 243 357.7 249.9 359.3 255.6 364.6 259.4 370.5 263.2 376.4 263 383 263 389.8L250 389.8 274 413.8C274 413.8 293.9 393.9 298 389.8L285 389.8Z"/></g></svg>