<svg width="96" height="96" xmlns="http://www.w3.org/2000/svg" xmlns:xlink="http://www.w3.org/1999/xlink" xml:space="preserve" overflow="hidden"><defs><clipPath id="clip0"><rect x="56" y="42" width="96" height="96"/></clipPath></defs><g clip-path="url(#clip0)" transform="translate(-56 -42)"><path d="M134 62 117 62 117 57C117 53.1 113.9 50 110 50L98 50C94.1 50 91 53.1 91 57L91 62 74 62C71.8 62 70 63.8 70 66L70 70 138 70 138 66C138 63.8 136.2 62 134 62ZM97 57C97 56.4 97.4 56 98 56L110 56C110.6 56 111 56.4 111 57L111 62 97 62 97 57Z"/><path d="M76 126C76 128.2 77.8 130 80 130L128 130C130.2 130 132 128.2 132 126L132 74 76 74 76 126ZM117 80 123 80 123 124 117 124 117 80ZM101 80 107 80 107 124 101 124 101 80ZM85 80 91 80 91 124 85 124 85 80Z"/></g></svg>